# xmcd CD database file
#
# Track frame offsets:
#	150
#	35555
#	63447
#	75352
#	93856
#	129042
#	147154
#	174656
#	213797
#	230714
#	265977
#	284462
#	303804
#
# Disc length: 4219 seconds
#
# Revision: 1
# Processed by: cddbd v1.5.2PL0 Copyright (c) Steve Scherf et al.
# Submitted via: CDex 1.51
#
DISCID=aa10790d
DTITLE=Various Artist - (VA) Jazztronik - Kind Of Jazz, Jazz Rock [CD1]
DYEAR=2007
DGENRE=Jazz
TTITLE0=The Mike Westbrook Concert Band - Original Peter
TTITLE1=Peter Herbolzheimer - Hi-Jack
TTITLE2=Bob Downes Open Music - Go Find Time
TTITLE3=The Dave Pike Set - Big Schlepp
TTITLE4=Amancio D'silva - What Maria Sees
TTITLE5=Wolfgang Dauner Quintet - Take Off Your Clothes To Feel The Setting Sun
TTITLE6=The Mike Westbrook Concert Band - Autumn King
TTITLE7=Neil Ardley - Towards Tranquility
TTITLE8=Ian Carr - Remadione
TTITLE9=The Tony Williams Lifetime - Via The Spectrum Road
TTITLE10=Nucleus - Elastic Rock
TTITLE11=Michael Garrick Band - Fire Opal And Blue Poppies, A Sequence Of Visions: Fire Opal
TTITLE12=Bill Fay - Sing Us One Of Your Songs May
EXTD=YEAR: 2007
EXTT0=
EXTT1=
EXTT2=
EXTT3=
EXTT4=
EXTT5=
EXTT6=
EXTT7=
EXTT8=
EXTT9=
EXTT10=
EXTT11=
EXTT12=
PLAYORDER=
